HIERARCHY
ROOT root
{
	OFFSET 0.000000 0.000000 0.000000
	CHANNELS 6 Xposition Yposition Zposition Zrotation Yrotation Xrotation
	JOINT lhip
	{
		OFFSET 0.058581 -0.082280 -0.017664
		CHANNELS 3 Zrotation Yrotation Xrotation
		JOINT lknee
		{
			OFFSET 0.043451 -0.386469 0.008037
			CHANNELS 3 Zrotation Yrotation Xrotation
			JOINT lankle
			{
				OFFSET -0.014790 -0.426874 -0.037428
				CHANNELS 3 Zrotation Yrotation Xrotation
				JOINT ltoe
				{
					OFFSET 0.041054 -0.060286 0.122042
					CHANNELS 3 Zrotation Yrotation Xrotation
					End Site
					{
						OFFSET 0.000000 0.000000 0.000000
					}
				}
			}
		}
	}
	JOINT rhip
	{
		OFFSET -0.060310 -0.090513 -0.013543
		CHANNELS 3 Zrotation Yrotation Xrotation
		JOINT rknee
		{
			OFFSET -0.043257 -0.383688 -0.004843
			CHANNELS 3 Zrotation Yrotation Xrotation
			JOINT rankle
			{
				OFFSET 0.019056 -0.420046 -0.034562
				CHANNELS 3 Zrotation Yrotation Xrotation
				JOINT rtoe
				{
					OFFSET -0.034840 -0.062106 0.130323
					CHANNELS 3 Zrotation Yrotation Xrotation
					End Site
					{
						OFFSET 0.000000 0.000000 0.000000
					}
				}
			}
		}
	}
	JOINT lowerback
	{
		OFFSET 0.004439 0.124404 -0.038385
		CHANNELS 3 Zrotation Yrotation Xrotation
		JOINT upperback
		{
			OFFSET 0.004488 0.137956 0.026820
			CHANNELS 3 Zrotation Yrotation Xrotation
			JOINT chest
			{
				OFFSET -0.002265 0.056032 0.002855
				CHANNELS 3 Zrotation Yrotation Xrotation
				JOINT lowerneck
				{
					OFFSET -0.013390 0.211636 -0.033468
					CHANNELS 3 Zrotation Yrotation Xrotation
					JOINT upperneck
					{
						OFFSET 0.010113 0.088937 0.050410
						CHANNELS 3 Zrotation Yrotation Xrotation
						End Site
						{
							OFFSET 0.000000 0.000000 0.000000
						}
					}
				}
				JOINT lclavicle
				{
					OFFSET 0.071702 0.114000 -0.018898
					CHANNELS 3 Zrotation Yrotation Xrotation
					JOINT lshoulder
					{
						OFFSET 0.122921 0.045205 -0.019046
						CHANNELS 3 Zrotation Yrotation Xrotation
						JOINT lelbow
						{
							OFFSET 0.255332 -0.015649 -0.022946
							CHANNELS 3 Zrotation Yrotation Xrotation
							JOINT lwrist
							{
								OFFSET 0.265709 0.012698 -0.007375
								CHANNELS 3 Zrotation Yrotation Xrotation
								End Site
								{
									OFFSET 0.000000 0.000000 0.000000
								}
							}
						}
					}
				}
				JOINT rclavicle
				{
					OFFSET -0.082954 0.112472 -0.023707
					CHANNELS 3 Zrotation Yrotation Xrotation
					JOINT rshoulder
					{
						OFFSET -0.113228 0.046853 -0.008472
						CHANNELS 3 Zrotation Yrotation Xrotation
						JOINT relbow
						{
							OFFSET -0.260127 -0.014369 -0.031269
							CHANNELS 3 Zrotation Yrotation Xrotation
							JOINT rwrist
							{
								OFFSET -0.269108 0.006794 -0.006027
								CHANNELS 3 Zrotation Yrotation Xrotation
								End Site
								{
									OFFSET 0.000000 0.000000 0.000000
								}
							}
						}
					}
				}
			}
		}
	}
}
MOTION
Frames: 13
Frame Time: 0.033333
-1.948389 0.318350 1.025168 83.867819 0.113847 88.342351 2.370183 1.249047 6.821583 -4.342506 -7.764869 0.639032 3.075073 11.272690 -11.872771 0.000000 -0.000000 0.000000 -3.998682 -2.146679 -4.808817 3.543027 -0.212168 19.051237 5.793354 -4.893188 -12.610355 0.000000 -0.000000 0.000000 -1.308382 0.376188 -3.957565 2.538018 -3.243030 8.476476 -0.861685 -1.317880 3.968138 8.403733 -16.394165 13.330795 11.152603 -17.688017 3.512884 -17.085936 12.428693 9.290061 -52.583770 1.827416 9.840000 -3.255170 -45.983207 18.304761 -4.653567 -3.221070 -3.278741 17.217849 -6.908403 7.179817 46.520858 -5.607819 8.986745 -5.563883 45.911227 12.615546 19.195648 1.595573 -1.839326 
-1.950385 0.316811 1.025085 83.126825 0.224153 87.854434 2.623496 1.446960 7.506944 -4.363590 -7.420054 0.264720 3.026493 11.289874 -11.910729 0.000000 -0.000000 0.000000 -3.751643 -1.776521 -4.523971 3.471362 -0.129477 19.132937 5.351589 -4.624559 -12.705142 0.000000 -0.000000 0.000000 -1.505758 0.496567 -3.374684 3.092689 -2.737963 8.333417 -0.605056 -1.265103 4.188700 8.812138 -17.502927 14.588902 10.345949 -19.351762 6.627084 -17.771637 12.541002 9.008443 -53.905492 -0.082874 9.163760 1.514757 -42.907397 11.341724 -3.990380 -2.629176 -6.230092 18.194859 -6.048793 6.488638 47.156008 -3.332611 8.346873 -9.770871 40.655886 6.109929 17.062111 1.371997 -4.646529 
-1.952901 0.315722 1.025349 83.249594 0.396709 87.303911 2.883385 1.247416 7.731677 -4.400542 -7.328294 0.537191 3.131493 11.125553 -12.034691 0.000000 -0.000000 0.000000 -3.471269 -1.673084 -4.030466 3.453644 -0.228624 19.057481 5.304303 -4.744378 -12.531948 0.000000 -0.000000 0.000000 -1.203588 0.373464 -2.676320 3.522421 -2.962355 8.584745 -0.512624 -1.272604 4.186994 8.616117 -18.262779 15.688790 9.748700 -20.102976 8.413962 -18.158157 12.319781 9.041474 -55.255535 -1.587897 8.338415 5.240444 -41.006294 5.913290 -3.324620 -2.602023 -10.195947 18.999970 -5.167796 6.327655 47.666110 -1.041640 7.576866 -13.188960 37.097255 1.183981 14.016340 0.982369 -6.004591 
-1.954916 0.314547 1.025825 83.006568 0.304815 86.878118 2.807029 1.235229 7.892801 -4.346630 -7.060834 0.761130 3.265025 10.950081 -12.044267 0.000000 -0.000000 0.000000 -3.532008 -1.581238 -3.779273 3.447666 -0.305836 19.149364 4.975688 -4.634493 -12.486918 0.000000 -0.000000 0.000000 -0.899019 0.414794 -1.971907 3.935430 -3.039928 8.835382 -0.285824 -1.202965 4.137401 8.501852 -18.748605 16.484899 9.200814 -20.538297 9.089544 -18.334503 12.124397 9.240463 -56.622095 -2.481762 7.877967 8.246455 -40.748629 2.790803 -3.125870 -2.336268 -13.130565 19.799660 -4.289133 6.204845 48.510517 1.357729 6.472542 -17.195359 33.879478 -3.548600 11.402874 1.079821 -5.663576 
-1.957121 0.314005 1.026269 82.912032 0.199178 86.650677 2.708892 1.178428 7.803032 -4.348477 -6.826424 1.057436 3.290242 10.825784 -12.047282 0.000000 -0.000000 0.000000 -3.582654 -1.443523 -3.842721 3.379660 -0.447007 19.372738 4.826334 -4.568179 -12.513265 0.000000 -0.000000 0.000000 -0.654155 0.314684 -1.470740 4.182828 -3.134888 8.994035 -0.211776 -1.082929 4.198461 8.512757 -18.687156 16.365959 8.826610 -20.816139 9.393576 -18.269372 11.814079 9.288127 -57.299046 -2.765530 7.968249 9.385963 -41.038564 2.248276 -2.586924 -2.310214 -13.677546 20.289730 -3.675009 6.093342 48.931482 2.660188 5.952969 -19.284946 32.586967 -6.135811 10.154931 1.001019 -5.703422 
-1.959531 0.313469 1.026940 82.709012 0.025394 86.622764 2.588619 1.482276 7.531667 -4.357744 -6.673438 1.303368 3.270309 10.472685 -12.031175 0.000000 -0.000000 0.000000 -3.689430 -1.584139 -4.174923 3.220369 -0.502869 19.614907 4.539786 -4.259515 -12.469109 0.000000 -0.000000 0.000000 -0.130779 0.221235 -0.922971 4.471117 -3.191448 9.086368 -0.167274 -0.845333 4.013890 8.461092 -18.646470 16.263571 8.410201 -21.044900 9.429170 -18.393037 11.577722 9.223305 -57.529713 -2.698323 8.250976 9.721901 -42.196072 2.958192 -1.959058 -2.476551 -13.540162 20.804640 -2.910528 6.030487 49.464073 3.917142 5.370156 -21.237418 31.171816 -8.735218 8.926690 1.003291 -5.868680 
-1.962034 0.313367 1.027660 82.871535 -0.181203 86.559845 2.406356 1.385463 7.428536 -4.393897 -6.508088 1.236750 3.215061 10.233664 -11.925467 0.000000 -0.000000 0.000000 -3.846254 -1.295480 -4.208744 3.156954 -0.762515 19.516033 4.317052 -4.486478 -12.597081 0.000000 -0.000000 0.000000 0.332936 0.207505 -0.321944 4.903101 -3.210333 9.155399 -0.022226 -0.668765 3.836291 8.594147 -18.578972 15.828606 7.897361 -21.530501 9.549237 -18.461865 10.989902 9.339057 -57.716927 -2.654305 8.830540 9.771917 -43.664569 4.460053 -2.531704 -2.416407 -12.591552 21.328152 -1.997042 6.206910 49.705424 4.763247 4.939562 -22.832527 30.036459 -10.651378 8.436637 0.984362 -5.832357 
-1.964432 0.313364 1.028474 83.070449 -0.285026 86.542224 2.326020 1.457549 7.280083 -4.330436 -6.435826 1.220166 2.998711 9.898687 -11.942514 0.000000 -0.000000 0.000000 -3.929789 -1.274432 -4.160552 3.095340 -0.972376 19.212438 4.099921 -4.558390 -12.505922 0.000000 -0.000000 0.000000 1.040939 0.183902 0.007687 5.314767 -3.212444 9.488011 0.150204 -0.613567 3.715989 8.516345 -18.565045 15.407973 7.462770 -21.591539 9.431285 -18.663950 10.286524 9.596224 -57.939909 -2.676086 9.416461 9.838400 -45.094323 5.748733 -3.028356 -2.688257 -12.158860 21.778856 -1.053483 6.312258 49.454928 5.691149 4.598099 -23.186601 28.864217 -11.164745 8.298427 1.074863 -5.169841 
-1.967351 0.312975 1.029053 83.534147 -0.458110 86.805424 2.219702 1.402070 6.701641 -4.360381 -6.493208 1.282956 2.898124 9.620093 -11.846859 0.000000 -0.000000 0.000000 -4.057820 -1.377227 -4.579723 2.997780 -1.339756 19.221405 4.030440 -4.571159 -12.516153 0.000000 -0.000000 0.000000 1.531004 0.066644 0.663232 5.830804 -3.228466 9.072345 0.445907 -0.536730 3.499667 8.482420 -18.518034 14.854495 7.020706 -21.878685 9.351701 -18.520812 10.152064 9.598049 -58.318264 -2.735021 10.041054 8.905890 -46.317637 8.026875 -3.742466 -3.003257 -11.853763 22.097314 -0.593354 6.184413 49.111231 6.415781 4.551740 -22.932333 27.799790 -10.623390 8.494101 0.781767 -4.240498 
-1.970726 0.311730 1.029781 84.436647 -0.767148 87.081103 2.083667 1.349815 6.137963 -4.456513 -6.608787 1.060623 2.778862 9.071004 -11.446672 0.000000 -0.000000 0.000000 -4.288586 -1.478311 -4.957041 2.957821 -1.831317 19.104777 3.689050 -4.945300 -12.550948 0.000000 -0.000000 0.000000 1.840308 -0.067666 0.921663 6.521940 -3.439018 9.148227 0.927300 -0.625743 3.375759 8.516648 -18.501821 13.906128 6.414133 -22.123171 9.269074 -18.436170 9.868259 9.923339 -58.757933 -2.958635 10.848862 8.375780 -48.226161 9.748815 -5.106471 -3.170140 -12.241459 22.652539 0.290472 6.230728 48.470285 7.537353 4.611104 -22.616035 26.061075 -10.062591 9.926583 0.657054 -3.194581 
-1.973216 0.310008 1.030422 85.278434 -0.970591 87.206523 2.054323 1.316901 5.710760 -4.468664 -6.707781 1.102736 2.506075 8.486510 -11.146956 0.000000 -0.000000 0.000000 -4.342953 -1.647283 -5.030370 2.815735 -2.270033 18.909311 3.443007 -5.145377 -12.539306 0.000000 -0.000000 0.000000 1.967020 -0.142352 1.457006 7.072499 -3.624321 8.911496 1.375873 -0.686043 3.230631 8.648891 -18.270401 12.986829 6.138034 -22.319263 8.925014 -18.208246 9.667132 9.977078 -59.119931 -3.050560 11.415311 7.239728 -49.404298 11.993829 -5.937352 -3.389118 -12.430560 23.060087 0.631788 5.882017 48.392833 8.160405 4.662082 -22.664294 25.023561 -9.795321 10.512373 0.225256 -2.345849 
-1.976009 0.308034 1.030869 86.520224 -1.191996 87.237203 1.983187 1.035232 5.076276 -4.484637 -6.910877 1.590449 2.176295 7.831795 -11.073815 0.000000 -0.000000 0.000000 -4.421084 -1.814479 -4.890449 2.672651 -2.965201 18.568752 2.928052 -5.518732 -12.645225 0.000000 -0.000000 0.000000 2.129945 -0.252082 1.941856 7.532438 -4.036101 8.875953 1.656604 -0.951144 3.290656 8.950601 -17.775199 11.248357 5.726293 -22.309178 8.201855 -18.085981 9.446224 10.097032 -59.223501 -3.225786 11.908016 6.610958 -50.887216 13.198021 -6.122077 -3.935473 -12.879705 23.445451 0.828825 5.227473 48.670285 8.879977 4.866114 -22.792509 24.196825 -10.294139 10.790191 0.109998 -2.419455 
-1.978306 0.305001 1.031321 87.452054 -1.435423 87.329867 1.880158 0.971053 4.526908 -4.452914 -7.390985 1.951373 2.003405 7.560265 -10.956093 0.000000 -0.000000 0.000000 -4.401590 -1.979649 -4.913742 2.510670 -3.309205 18.405847 2.772061 -5.847001 -12.569948 0.000000 -0.000000 0.000000 2.314474 -0.484507 2.423594 7.721849 -4.408430 8.856835 1.841054 -0.961435 3.154490 8.927896 -17.042328 9.649712 5.395555 -21.766216 6.461902 -18.110256 9.260141 9.789428 -58.861001 -2.870880 12.262128 5.436300 -52.251582 14.745230 -5.992646 -3.618747 -13.702706 23.959676 1.198328 4.862540 49.270656 9.333119 5.174131 -23.142509 23.647911 -11.277198 9.897137 -0.213877 -2.556264 
